<svg width="195" height="165" viewBox="0 0 195 165" fill="none" xmlns="http://www.w3.org/2000/svg">
<rect width="195" height="165" rx="15" fill="url(#paint0_linear_1_2355)"/>
<path d="M24.344 32.2H22.888L20.228 36.792L17.568 32.2H16.112L19.57 38.024V42H20.872V38.038L24.344 32.2ZM27.2687 42.182C29.3127 42.182 30.9647 40.572 30.9647 38.5C30.9647 36.428 29.3127 34.818 27.2687 34.818C25.2247 34.818 23.5867 36.428 23.5867 38.5C23.5867 40.572 25.2247 42.182 27.2687 42.182ZM27.2687 40.992C25.8827 40.992 24.8047 39.914 24.8047 38.5C24.8047 37.086 25.8827 36.008 27.2687 36.008C28.6687 36.008 29.7467 37.086 29.7467 38.5C29.7467 39.914 28.6687 40.992 27.2687 40.992ZM37.2306 35V38.71C37.2306 40.362 36.3206 41.02 35.2006 41.02C34.1226 41.02 33.4646 40.376 33.4646 39.228V35H32.2466V39.298C32.2466 41.09 33.3246 42.182 34.9626 42.182C35.9426 42.182 36.7126 41.818 37.2306 40.992V42H38.4486V35H37.2306ZM41.5209 36.176V35H40.3029V42H41.5209V38.29C41.5209 36.638 42.6549 36.106 43.7049 36.148V34.874C42.8229 34.874 41.9689 35.196 41.5209 36.176ZM54.1227 36.918C54.7667 36.47 55.1867 35.756 55.1867 34.874C55.1867 33.362 53.9687 32.2 52.4427 32.2H48.5227V42H52.7507C54.3327 42 55.5927 40.796 55.5927 39.228C55.5927 38.164 55.0047 37.338 54.1227 36.918ZM52.4427 33.418C53.2547 33.418 53.8987 34.09 53.8987 34.916C53.8987 35.756 53.2547 36.414 52.4427 36.414H49.8247V33.418H52.4427ZM52.7507 40.782H49.8247V37.604H52.7507C53.6187 37.604 54.3047 38.304 54.3047 39.186C54.3047 40.082 53.6187 40.782 52.7507 40.782ZM62.847 35V36.204C62.287 35.35 61.391 34.818 60.201 34.818C58.255 34.818 56.659 36.428 56.659 38.5C56.659 40.572 58.255 42.182 60.201 42.182C61.391 42.182 62.287 41.65 62.847 40.796V42H64.065V35H62.847ZM60.355 41.006C58.955 41.006 57.877 39.928 57.877 38.5C57.877 37.072 58.955 35.994 60.355 35.994C61.769 35.994 62.847 37.072 62.847 38.5C62.847 39.928 61.769 41.006 60.355 41.006ZM65.9103 42H67.1283V31.78H65.9103V42ZM74.7825 35V36.204C74.2225 35.35 73.3265 34.818 72.1365 34.818C70.1905 34.818 68.5945 36.428 68.5945 38.5C68.5945 40.572 70.1905 42.182 72.1365 42.182C73.3265 42.182 74.2225 41.65 74.7825 40.796V42H76.0005V35H74.7825ZM72.2905 41.006C70.8905 41.006 69.8125 39.928 69.8125 38.5C69.8125 37.072 70.8905 35.994 72.2905 35.994C73.7045 35.994 74.7825 37.072 74.7825 38.5C74.7825 39.928 73.7045 41.006 72.2905 41.006ZM81.3319 34.818C80.3519 34.818 79.5819 35.182 79.0639 36.008V35H77.8459V42H79.0639V38.29C79.0639 36.638 79.9739 35.98 81.0939 35.98C82.1719 35.98 82.8299 36.624 82.8299 37.772V42H84.0479V37.702C84.0479 35.91 82.9699 34.818 81.3319 34.818ZM89.0382 42.182C90.4102 42.182 91.6002 41.454 92.1882 40.362L91.1522 39.76C90.7602 40.488 89.9902 40.978 89.0382 40.978C87.6382 40.978 86.5742 39.9 86.5742 38.5C86.5742 37.086 87.6382 36.008 89.0382 36.008C89.9762 36.008 90.7602 36.498 91.1102 37.24L92.1322 36.652C91.6002 35.546 90.4242 34.818 89.0382 34.818C86.9242 34.818 85.3562 36.428 85.3562 38.5C85.3562 40.572 86.9242 42.182 89.0382 42.182ZM94.1491 39.06H100.015C100.043 38.878 100.057 38.696 100.057 38.514C100.057 36.554 98.6851 34.818 96.5711 34.818C94.3871 34.818 92.9031 36.428 92.9031 38.5C92.9031 40.6 94.4011 42.182 96.6551 42.182C98.0551 42.182 99.1191 41.552 99.7351 40.6L98.6991 40.012C98.3491 40.586 97.6491 41.034 96.6831 41.034C95.3811 41.034 94.3871 40.32 94.1491 39.06ZM96.5711 35.966C97.6211 35.966 98.6151 36.61 98.8251 37.996H94.1491C94.3451 36.778 95.2551 35.966 96.5711 35.966Z" fill="white"/>
<path d="M28.48 67.624C28.48 68.904 28.144 70.032 27.472 71.008L22.168 79H19L22.84 73.36H22.552C20.808 73.36 19.376 72.832 18.256 71.776C17.152 70.704 16.6 69.32 16.6 67.624C16.6 65.928 17.152 64.552 18.256 63.496C19.376 62.424 20.808 61.888 22.552 61.888C24.312 61.888 25.736 62.424 26.824 63.496C27.928 64.552 28.48 65.928 28.48 67.624ZM19.36 67.624C19.36 68.536 19.656 69.288 20.248 69.88C20.856 70.456 21.624 70.744 22.552 70.744C23.48 70.744 24.24 70.464 24.832 69.904C25.424 69.328 25.72 68.568 25.72 67.624C25.72 66.68 25.424 65.928 24.832 65.368C24.24 64.792 23.48 64.504 22.552 64.504C21.624 64.504 20.856 64.792 20.248 65.368C19.656 65.928 19.36 66.68 19.36 67.624ZM28.7986 75.688C29.2946 75.688 29.7186 75.864 30.0706 76.216C30.4226 76.568 30.5986 76.992 30.5986 77.488C30.5986 77.984 30.4226 78.408 30.0706 78.76C29.7186 79.112 29.2946 79.288 28.7986 79.288C28.3026 79.288 27.8786 79.112 27.5266 78.76C27.1746 78.408 26.9986 77.984 26.9986 77.488C26.9986 76.992 27.1666 76.568 27.5026 76.216C27.8546 75.864 28.2866 75.688 28.7986 75.688ZM43.5252 76.936C42.3732 78.52 40.7572 79.312 38.6772 79.312C36.6132 79.312 34.9892 78.52 33.8052 76.936C32.6532 75.352 32.0772 73.24 32.0772 70.6C32.0772 67.96 32.6532 65.848 33.8052 64.264C34.9892 62.68 36.6132 61.888 38.6772 61.888C40.7572 61.888 42.3732 62.68 43.5252 64.264C44.6932 65.832 45.2772 67.944 45.2772 70.6C45.2772 73.256 44.6932 75.368 43.5252 76.936ZM38.6772 76.624C39.9252 76.624 40.8772 76.104 41.5332 75.064C42.1892 74.024 42.5172 72.536 42.5172 70.6C42.5172 68.664 42.1892 67.176 41.5332 66.136C40.8772 65.096 39.9252 64.576 38.6772 64.576C37.4452 64.576 36.4932 65.096 35.8212 66.136C35.1652 67.176 34.8372 68.664 34.8372 70.6C34.8372 72.536 35.1652 74.024 35.8212 75.064C36.4932 76.104 37.4452 76.624 38.6772 76.624ZM57.8264 73.408H59.7464V75.976H57.8264V79H55.0424V75.976H46.7864V73.408L52.5704 62.2H55.5704L49.7864 73.408H55.0424V69.04H57.8264V73.408ZM70.5963 71.824V76.36H78.0363V79H67.8363V62.2H77.9163V64.84H70.5963V69.208H77.3163V71.824H70.5963ZM79.2428 62.2H91.4828V64.84H86.7548V79H83.9948V64.84H79.2428V62.2ZM103.484 69.088V62.2H106.244V79H103.484V71.728H96.2838V79H93.5238V62.2H96.2838V69.088H103.484Z" fill="white"/>
<rect x="16" y="110" width="163" height="35" rx="5" fill="white"/>
<g clip-path="url(#clip0_1_2355)">
<g clip-path="url(#clip1_1_2355)">
<path d="M60.834 123.597H54.654V125.181H56.91V131.997H58.566V125.181H60.834V123.597ZM63.4526 132.165C65.2166 132.165 66.6326 130.785 66.6326 128.997C66.6326 127.209 65.2166 125.829 63.4526 125.829C61.6886 125.829 60.2846 127.209 60.2846 128.997C60.2846 130.785 61.6886 132.165 63.4526 132.165ZM63.4526 130.653C62.5406 130.653 61.8326 129.969 61.8326 128.997C61.8326 128.025 62.5406 127.341 63.4526 127.341C64.3766 127.341 65.0846 128.025 65.0846 128.997C65.0846 129.969 64.3766 130.653 63.4526 130.653ZM71.2136 125.829C70.3376 125.829 69.7016 126.153 69.2696 126.705V125.997H67.7216V134.397H69.2696V131.289C69.7016 131.841 70.3376 132.165 71.2136 132.165C72.8216 132.165 74.1416 130.785 74.1416 128.997C74.1416 127.209 72.8216 125.829 71.2136 125.829ZM70.9256 130.689C69.9776 130.689 69.2696 130.005 69.2696 128.997C69.2696 127.989 69.9776 127.305 70.9256 127.305C71.8856 127.305 72.5936 127.989 72.5936 128.997C72.5936 130.005 71.8856 130.689 70.9256 130.689ZM82.1933 125.997V129.237C82.1933 130.281 81.6293 130.725 80.8733 130.725C80.1773 130.725 79.6853 130.305 79.6853 129.489V125.997H78.1373V129.681C78.1373 131.277 79.1333 132.165 80.4053 132.165C81.2093 132.165 81.8333 131.865 82.1933 131.325V131.997H83.7413V125.997H82.1933ZM88.6511 125.829C87.7751 125.829 87.1391 126.153 86.7071 126.705V125.997H85.1591V134.397H86.7071V131.289C87.1391 131.841 87.7751 132.165 88.6511 132.165C90.2591 132.165 91.5791 130.785 91.5791 128.997C91.5791 127.209 90.2591 125.829 88.6511 125.829ZM88.3631 130.689C87.4151 130.689 86.7071 130.005 86.7071 128.997C86.7071 127.989 87.4151 127.305 88.3631 127.305C89.3231 127.305 90.0311 127.989 90.0311 128.997C90.0311 130.005 89.3231 130.689 88.3631 130.689ZM100.819 127.641C101.311 127.245 101.611 126.681 101.611 125.961C101.611 124.557 100.471 123.597 99.0548 123.597H95.7428V131.997H99.3068C100.759 131.997 101.923 131.001 101.923 129.561C101.923 128.685 101.491 128.025 100.819 127.641ZM99.0548 125.145C99.5828 125.145 99.9548 125.541 99.9548 126.069C99.9548 126.597 99.5708 126.993 99.0548 126.993H97.3988V125.145H99.0548ZM99.3068 130.449H97.3988V128.469H99.3068C99.8708 128.469 100.279 128.889 100.279 129.453C100.279 130.029 99.8708 130.449 99.3068 130.449ZM107.59 125.997V126.705C107.158 126.165 106.51 125.829 105.634 125.829C104.038 125.829 102.718 127.209 102.718 128.997C102.718 130.785 104.038 132.165 105.634 132.165C106.51 132.165 107.158 131.829 107.59 131.289V131.997H109.138V125.997H107.59ZM105.922 130.689C104.974 130.689 104.266 130.005 104.266 128.997C104.266 127.989 104.974 127.305 105.922 127.305C106.882 127.305 107.59 127.989 107.59 128.997C107.59 130.005 106.882 130.689 105.922 130.689ZM110.542 131.997H112.09V123.237H110.542V131.997ZM118.067 125.997V126.705C117.635 126.165 116.987 125.829 116.111 125.829C114.515 125.829 113.195 127.209 113.195 128.997C113.195 130.785 114.515 132.165 116.111 132.165C116.987 132.165 117.635 131.829 118.067 131.289V131.997H119.615V125.997H118.067ZM116.399 130.689C115.451 130.689 114.743 130.005 114.743 128.997C114.743 127.989 115.451 127.305 116.399 127.305C117.359 127.305 118.067 127.989 118.067 128.997C118.067 130.005 117.359 130.689 116.399 130.689ZM124.354 125.829C123.55 125.829 122.926 126.129 122.566 126.669V125.997H121.018V131.997H122.566V128.757C122.566 127.713 123.13 127.269 123.886 127.269C124.582 127.269 125.074 127.689 125.074 128.505V131.997H126.622V128.313C126.622 126.717 125.626 125.829 124.354 125.829ZM130.8 132.165C131.976 132.165 132.996 131.541 133.512 130.605L132.168 129.837C131.928 130.329 131.412 130.629 130.788 130.629C129.864 130.629 129.18 129.945 129.18 128.997C129.18 128.037 129.864 127.353 130.788 127.353C131.4 127.353 131.916 127.665 132.156 128.157L133.488 127.377C132.996 126.453 131.976 125.829 130.8 125.829C128.976 125.829 127.632 127.209 127.632 128.997C127.632 130.785 128.976 132.165 130.8 132.165ZM135.545 129.633H140.069C140.105 129.429 140.129 129.225 140.129 128.997C140.129 127.233 138.869 125.829 137.093 125.829C135.209 125.829 133.925 127.209 133.925 128.997C133.925 130.785 135.197 132.165 137.213 132.165C138.365 132.165 139.265 131.697 139.829 130.881L138.581 130.161C138.317 130.509 137.837 130.761 137.237 130.761C136.421 130.761 135.761 130.425 135.545 129.633ZM135.521 128.433C135.701 127.665 136.265 127.221 137.093 127.221C137.741 127.221 138.389 127.569 138.581 128.433H135.521Z" fill="#444BF8"/>
</g>
</g>
<defs>
<linearGradient id="paint0_linear_1_2355" x1="0" y1="0" x2="162.724" y2="192.31" gradientUnits="userSpaceOnUse">
<stop stop-color="#868CFF"/>
<stop offset="1" stop-color="#4318FF"/>
</linearGradient>
<clipPath id="clip0_1_2355">
<rect width="106" height="24.0058" fill="white" transform="translate(44.5 115.497)"/>
</clipPath>
<clipPath id="clip1_1_2355">
<rect width="106" height="15" fill="white" transform="translate(44.4999 119.997)"/>
</clipPath>
</defs>
</svg>
