<svg width="71" height="17" viewBox="0 0 71 17" fill="none" xmlns="http://www.w3.org/2000/svg">
<path d="M20.238 10.796C19.566 11.72 18.6233 12.182 17.41 12.182C16.206 12.182 15.2587 11.72 14.568 10.796C13.896 9.872 13.56 8.64 13.56 7.1C13.56 5.56 13.896 4.328 14.568 3.404C15.2587 2.48 16.206 2.018 17.41 2.018C18.6233 2.018 19.566 2.48 20.238 3.404C20.9193 4.31867 21.26 5.55067 21.26 7.1C21.26 8.64933 20.9193 9.88133 20.238 10.796ZM17.41 10.614C18.138 10.614 18.6933 10.3107 19.076 9.704C19.4587 9.09733 19.65 8.22933 19.65 7.1C19.65 5.97067 19.4587 5.10267 19.076 4.496C18.6933 3.88933 18.138 3.586 17.41 3.586C16.6913 3.586 16.136 3.88933 15.744 4.496C15.3613 5.10267 15.17 5.97067 15.17 7.1C15.17 8.22933 15.3613 9.09733 15.744 9.704C16.136 10.3107 16.6913 10.614 17.41 10.614ZM23.1865 10.068C23.4759 10.068 23.7232 10.1707 23.9285 10.376C24.1339 10.5813 24.2365 10.8287 24.2365 11.118C24.2365 11.4073 24.1339 11.6547 23.9285 11.86C23.7232 12.0653 23.4759 12.168 23.1865 12.168C22.8972 12.168 22.6499 12.0653 22.4445 11.86C22.2392 11.6547 22.1365 11.4073 22.1365 11.118C22.1365 10.8287 22.2345 10.5813 22.4305 10.376C22.6359 10.1707 22.8879 10.068 23.1865 10.068ZM31.2585 5.364C31.2585 6.11067 31.0625 6.76867 30.6705 7.338L27.5765 12H25.7285L27.9685 8.71H27.8005C26.7832 8.71 25.9478 8.402 25.2945 7.786C24.6505 7.16067 24.3285 6.35333 24.3285 5.364C24.3285 4.37467 24.6505 3.572 25.2945 2.956C25.9478 2.33067 26.7832 2.018 27.8005 2.018C28.8272 2.018 29.6578 2.33067 30.2925 2.956C30.9365 3.572 31.2585 4.37467 31.2585 5.364ZM25.9385 5.364C25.9385 5.896 26.1112 6.33467 26.4565 6.68C26.8112 7.016 27.2592 7.184 27.8005 7.184C28.3418 7.184 28.7852 7.02067 29.1305 6.694C29.4758 6.358 29.6485 5.91467 29.6485 5.364C29.6485 4.81333 29.4758 4.37467 29.1305 4.048C28.7852 3.712 28.3418 3.544 27.8005 3.544C27.2592 3.544 26.8112 3.712 26.4565 4.048C26.1112 4.37467 25.9385 4.81333 25.9385 5.364ZM38.8874 5.364C38.8874 6.11067 38.6914 6.76867 38.2994 7.338L35.2054 12H33.3574L35.5974 8.71H35.4294C34.4121 8.71 33.5768 8.402 32.9234 7.786C32.2794 7.16067 31.9574 6.35333 31.9574 5.364C31.9574 4.37467 32.2794 3.572 32.9234 2.956C33.5768 2.33067 34.4121 2.018 35.4294 2.018C36.4561 2.018 37.2868 2.33067 37.9214 2.956C38.5654 3.572 38.8874 4.37467 38.8874 5.364ZM33.5674 5.364C33.5674 5.896 33.7401 6.33467 34.0854 6.68C34.4401 7.016 34.8881 7.184 35.4294 7.184C35.9708 7.184 36.4141 7.02067 36.7594 6.694C37.1048 6.358 37.2774 5.91467 37.2774 5.364C37.2774 4.81333 37.1048 4.37467 36.7594 4.048C36.4141 3.712 35.9708 3.544 35.4294 3.544C34.8881 3.544 34.4401 3.712 34.0854 4.048C33.7401 4.37467 33.5674 4.81333 33.5674 5.364ZM45.3263 7.814V10.46H49.6663V12H43.7163V2.2H49.5963V3.74H45.3263V6.288H49.2463V7.814H45.3263ZM50.3702 2.2H57.5102V3.74H54.7522V12H53.1422V3.74H50.3702V2.2ZM64.5107 6.218V2.2H66.1207V12H64.5107V7.758H60.3107V12H58.7007V2.2H60.3107V6.218H64.5107Z" fill="#B7ABFF"/>
<path d="M4.35895 1L4.26367 1.32365V10.7142L4.35895 10.8092L8.71784 8.23263L4.35895 1Z" fill="#B7ABFF"/>
<path d="M4.35901 1L0 8.23263L4.35901 10.8092V6.25131V1Z" fill="#B7ABFF"/>
<path d="M4.359 11.6345L4.3053 11.7V15.045L4.359 15.2018L8.72054 9.05927L4.359 11.6345Z" fill="#B7ABFF"/>
<path d="M4.35901 15.2018V11.6345L0 9.05927L4.35901 15.2018Z" fill="#B7ABFF"/>
<path d="M4.35901 10.8092L8.7179 8.23266L4.35901 6.25134V10.8092Z" fill="#B7ABFF"/>
<path d="M0 8.23266L4.35901 10.8092V6.25134L0 8.23266Z" fill="#B7ABFF"/>
</svg>
