<svg width="71" height="17" viewBox="0 0 71 17" fill="none" xmlns="http://www.w3.org/2000/svg">
<path d="M20.238 10.796C19.566 11.72 18.6233 12.182 17.41 12.182C16.206 12.182 15.2587 11.72 14.568 10.796C13.896 9.872 13.56 8.64 13.56 7.1C13.56 5.56 13.896 4.328 14.568 3.404C15.2587 2.48 16.206 2.018 17.41 2.018C18.6233 2.018 19.566 2.48 20.238 3.404C20.9193 4.31867 21.26 5.55067 21.26 7.1C21.26 8.64933 20.9193 9.88133 20.238 10.796ZM17.41 10.614C18.138 10.614 18.6933 10.3107 19.076 9.704C19.4587 9.09733 19.65 8.22933 19.65 7.1C19.65 5.97067 19.4587 5.10267 19.076 4.496C18.6933 3.88933 18.138 3.586 17.41 3.586C16.6913 3.586 16.136 3.88933 15.744 4.496C15.3613 5.10267 15.17 5.97067 15.17 7.1C15.17 8.22933 15.3613 9.09733 15.744 9.704C16.136 10.3107 16.6913 10.614 17.41 10.614ZM23.1865 10.068C23.4759 10.068 23.7232 10.1707 23.9285 10.376C24.1339 10.5813 24.2365 10.8287 24.2365 11.118C24.2365 11.4073 24.1339 11.6547 23.9285 11.86C23.7232 12.0653 23.4759 12.168 23.1865 12.168C22.8972 12.168 22.6499 12.0653 22.4445 11.86C22.2392 11.6547 22.1365 11.4073 22.1365 11.118C22.1365 10.8287 22.2345 10.5813 22.4305 10.376C22.6359 10.1707 22.8879 10.068 23.1865 10.068ZM31.7771 10.796C31.1051 11.72 30.1624 12.182 28.9491 12.182C27.7451 12.182 26.7977 11.72 26.1071 10.796C25.4351 9.872 25.0991 8.64 25.0991 7.1C25.0991 5.56 25.4351 4.328 26.1071 3.404C26.7977 2.48 27.7451 2.018 28.9491 2.018C30.1624 2.018 31.1051 2.48 31.7771 3.404C32.4584 4.31867 32.7991 5.55067 32.7991 7.1C32.7991 8.64933 32.4584 9.88133 31.7771 10.796ZM28.9491 10.614C29.6771 10.614 30.2324 10.3107 30.6151 9.704C30.9977 9.09733 31.1891 8.22933 31.1891 7.1C31.1891 5.97067 30.9977 5.10267 30.6151 4.496C30.2324 3.88933 29.6771 3.586 28.9491 3.586C28.2304 3.586 27.6751 3.88933 27.2831 4.496C26.9004 5.10267 26.7091 5.97067 26.7091 7.1C26.7091 8.22933 26.9004 9.09733 27.2831 9.704C27.6751 10.3107 28.2304 10.614 28.9491 10.614ZM35.9071 5.896H37.1391C38.0724 5.896 38.8611 6.176 39.5051 6.736C40.1491 7.28667 40.4711 8.052 40.4711 9.032C40.4711 10.012 40.1397 10.782 39.4771 11.342C38.8237 11.902 38.0117 12.182 37.0411 12.182C36.2477 12.182 35.5571 12 34.9691 11.636C34.3811 11.272 33.9611 10.754 33.7091 10.082L35.0951 9.284C35.3657 10.1707 36.0144 10.614 37.0411 10.614C37.5917 10.614 38.0304 10.474 38.3571 10.194C38.6931 9.90467 38.8611 9.51733 38.8611 9.032C38.8611 8.556 38.6977 8.178 38.3711 7.898C38.0444 7.60867 37.6104 7.464 37.0691 7.464H34.2131L34.5911 2.2H40.0511V3.712H36.0751L35.9071 5.896ZM47.008 7.814V10.46H51.348V12H45.398V2.2H51.278V3.74H47.008V6.288H50.928V7.814H47.008ZM52.0518 2.2H59.1918V3.74H56.4338V12H54.8238V3.74H52.0518V2.2ZM66.1923 6.218V2.2H67.8023V12H66.1923V7.758H61.9923V12H60.3823V2.2H61.9923V6.218H66.1923Z" fill="#B7ABFF"/>
<path d="M4.35895 1L4.26367 1.32365V10.7142L4.35895 10.8092L8.71784 8.23263L4.35895 1Z" fill="#B7ABFF"/>
<path d="M4.35901 1L0 8.23263L4.35901 10.8092V6.25131V1Z" fill="#B7ABFF"/>
<path d="M4.359 11.6345L4.3053 11.7V15.045L4.359 15.2018L8.72054 9.05927L4.359 11.6345Z" fill="#B7ABFF"/>
<path d="M4.35901 15.2018V11.6345L0 9.05927L4.35901 15.2018Z" fill="#B7ABFF"/>
<path d="M4.35901 10.8092L8.7179 8.23266L4.35901 6.25134V10.8092Z" fill="#B7ABFF"/>
<path d="M0 8.23266L4.35901 10.8092V6.25134L0 8.23266Z" fill="#B7ABFF"/>
</svg>
