<svg width="71" height="17" viewBox="0 0 71 17" fill="none" xmlns="http://www.w3.org/2000/svg">
<path d="M20.238 10.796C19.566 11.72 18.6233 12.182 17.41 12.182C16.206 12.182 15.2587 11.72 14.568 10.796C13.896 9.872 13.56 8.64 13.56 7.1C13.56 5.56 13.896 4.328 14.568 3.404C15.2587 2.48 16.206 2.018 17.41 2.018C18.6233 2.018 19.566 2.48 20.238 3.404C20.9193 4.31867 21.26 5.55067 21.26 7.1C21.26 8.64933 20.9193 9.88133 20.238 10.796ZM17.41 10.614C18.138 10.614 18.6933 10.3107 19.076 9.704C19.4587 9.09733 19.65 8.22933 19.65 7.1C19.65 5.97067 19.4587 5.10267 19.076 4.496C18.6933 3.88933 18.138 3.586 17.41 3.586C16.6913 3.586 16.136 3.88933 15.744 4.496C15.3613 5.10267 15.17 5.97067 15.17 7.1C15.17 8.22933 15.3613 9.09733 15.744 9.704C16.136 10.3107 16.6913 10.614 17.41 10.614ZM23.1865 10.068C23.4759 10.068 23.7232 10.1707 23.9285 10.376C24.1339 10.5813 24.2365 10.8287 24.2365 11.118C24.2365 11.4073 24.1339 11.6547 23.9285 11.86C23.7232 12.0653 23.4759 12.168 23.1865 12.168C22.8972 12.168 22.6499 12.0653 22.4445 11.86C22.2392 11.6547 22.1365 11.4073 22.1365 11.118C22.1365 10.8287 22.2345 10.5813 22.4305 10.376C22.6359 10.1707 22.8879 10.068 23.1865 10.068ZM27.5809 5.896H28.8129C29.7462 5.896 30.5349 6.176 31.1789 6.736C31.8229 7.28667 32.1449 8.052 32.1449 9.032C32.1449 10.012 31.8136 10.782 31.1509 11.342C30.4976 11.902 29.6856 12.182 28.7149 12.182C27.9216 12.182 27.2309 12 26.6429 11.636C26.0549 11.272 25.6349 10.754 25.3829 10.082L26.7689 9.284C27.0396 10.1707 27.6882 10.614 28.7149 10.614C29.2656 10.614 29.7042 10.474 30.0309 10.194C30.3669 9.90467 30.5349 9.51733 30.5349 9.032C30.5349 8.556 30.3716 8.178 30.0449 7.898C29.7182 7.60867 29.2842 7.464 28.7429 7.464H25.8869L26.2649 2.2H31.7249V3.712H27.7489L27.5809 5.896ZM39.0241 5.364C39.0241 6.11067 38.8281 6.76867 38.4361 7.338L35.3421 12H33.4941L35.7341 8.71H35.5661C34.5488 8.71 33.7135 8.402 33.0601 7.786C32.4161 7.16067 32.0941 6.35333 32.0941 5.364C32.0941 4.37467 32.4161 3.572 33.0601 2.956C33.7135 2.33067 34.5488 2.018 35.5661 2.018C36.5928 2.018 37.4235 2.33067 38.0581 2.956C38.7021 3.572 39.0241 4.37467 39.0241 5.364ZM33.7041 5.364C33.7041 5.896 33.8768 6.33467 34.2221 6.68C34.5768 7.016 35.0248 7.184 35.5661 7.184C36.1075 7.184 36.5508 7.02067 36.8961 6.694C37.2415 6.358 37.4141 5.91467 37.4141 5.364C37.4141 4.81333 37.2415 4.37467 36.8961 4.048C36.5508 3.712 36.1075 3.544 35.5661 3.544C35.0248 3.544 34.5768 3.712 34.2221 4.048C33.8768 4.37467 33.7041 4.81333 33.7041 5.364ZM45.463 7.814V10.46H49.803V12H43.853V2.2H49.733V3.74H45.463V6.288H49.383V7.814H45.463ZM50.5069 2.2H57.6469V3.74H54.8889V12H53.2789V3.74H50.5069V2.2ZM64.6474 6.218V2.2H66.2574V12H64.6474V7.758H60.4474V12H58.8374V2.2H60.4474V6.218H64.6474Z" fill="#B7ABFF"/>
<path d="M4.35895 1L4.26367 1.32365V10.7142L4.35895 10.8092L8.71784 8.23263L4.35895 1Z" fill="#B7ABFF"/>
<path d="M4.35901 1L0 8.23263L4.35901 10.8092V6.25131V1Z" fill="#B7ABFF"/>
<path d="M4.359 11.6345L4.3053 11.7V15.045L4.359 15.2018L8.72054 9.05927L4.359 11.6345Z" fill="#B7ABFF"/>
<path d="M4.35901 15.2018V11.6345L0 9.05927L4.35901 15.2018Z" fill="#B7ABFF"/>
<path d="M4.35901 10.8092L8.7179 8.23266L4.35901 6.25134V10.8092Z" fill="#B7ABFF"/>
<path d="M0 8.23266L4.35901 10.8092V6.25134L0 8.23266Z" fill="#B7ABFF"/>
</svg>
